<?xml version="1.0" encoding="UTF-8" standalone="no"?>
<svg
   height="45.5"
   viewBox="0 0 345.75 489.31"
   width="32.2"
   version="1.1"
   id="svg15"
   sodipodi:docname="EXFIL_3.svg"
   inkscape:version="1.4 (86a8ad7, 2024-10-11)"
   xmlns:inkscape="http://www.inkscape.org/namespaces/inkscape"
   xmlns:sodipodi="http://sodipodi.sourceforge.net/DTD/sodipodi-0.dtd"
   xmlns="http://www.w3.org/2000/svg"
   xmlns:svg="http://www.w3.org/2000/svg">
  <defs
     id="defs15" />
  <sodipodi:namedview
     id="namedview15"
     pagecolor="#ffffff"
     bordercolor="#000000"
     borderopacity="0.25"
     inkscape:showpageshadow="2"
     inkscape:pageopacity="0.0"
     inkscape:pagecheckerboard="0"
     inkscape:deskcolor="#d1d1d1"
     inkscape:zoom="18.131868"
     inkscape:cx="16.049091"
     inkscape:cy="25.011212"
     inkscape:window-width="1920"
     inkscape:window-height="1027"
     inkscape:window-x="-8"
     inkscape:window-y="-8"
     inkscape:window-maximized="1"
     inkscape:current-layer="g15"
     showgrid="false">
    <inkscape:grid
       id="grid1"
       units="px"
       originx="0"
       originy="0"
       spacingx="10.737577"
       spacingy="10.754066"
       empcolor="#0099e5"
       empopacity="0.30196078"
       color="#0099e5"
       opacity="0.14901961"
       empspacing="5"
       enabled="true"
       visible="false" />
  </sodipodi:namedview>
  <g
     stroke="#000"
     stroke-miterlimit="10"
     id="g15">
    <path
       d="m 296.90625,190.85092 c 0,14.97 -2.6625,29.3175 -7.53,42.6 -15.4725,42.2475 -95.6175,161.3925 -113.1225,187.1925 -1.65,2.43 -5.2125,2.4975 -6.945,0.12 -20.295,-27.8475 -120.464998,-168.3975 -120.464998,-229.9575 0,-69.345 56.902498,-125.399995 126.562498,-124.012495 67.2825,1.3425 121.53,56.752495 121.5,124.057495 z"
       fill="#facd45"
       stroke-width="11.25"
       id="path1" />
    <path
       style="fill:#000000;stroke-width:2.05579"
       d="m 1346.9344,2507.4171 v -109.4183 l 9.6664,-5.9741 c 5.3165,-3.2841 11.1755,-7.4352 13.02,-9.2208 1.8444,-1.7843 18.772,-14.3031 37.6167,-27.8168 40.7961,-29.2544 36.905,-26.3711 51.6541,-38.2769 6.5498,-5.2875 13.6479,-9.613 15.7734,-9.613 3.5557,0 39.074,-23.1926 42.2146,-27.5648 0.7535,-1.0487 15.5554,-11.2978 32.8925,-22.774 17.3372,-11.4766 37.8473,-25.5057 45.5782,-31.1766 7.7309,-5.6704 26.8497,-19.469 42.4863,-30.6632 15.6366,-11.1941 32.5564,-23.5287 37.5997,-27.4103 20.836,-16.037 47.8223,-34.9456 84.4395,-59.1654 21.3334,-14.1104 39.6309,-27.0193 40.6612,-28.6862 2.5261,-4.0873 11.0012,-1.0811 19.7172,6.9983 3.9406,3.65 8.194,6.6398 9.4522,6.6398 4.5851,0 117.2209,77.9886 123.0002,85.1649 0.7543,0.9349 8.7715,6.8016 17.8168,13.0346 9.0456,6.2329 26.9309,18.9382 39.7453,28.2342 12.8145,9.296 33.7834,23.7889 46.5978,32.2065 12.8145,8.4173 24.5324,16.2728 26.0401,17.4564 7.8894,6.1947 41.1176,29.9466 60.3369,43.1299 25.0308,17.1694 73.091,52.2077 92.8424,67.687 7.3623,5.77 17.5384,12.8663 22.6137,15.77 l 9.2278,5.2794 v 107.7889 c 0,93.9434 -0.5272,107.7892 -4.108,107.7892 -3.7324,0 -39.5255,-24.457 -78.1235,-53.3806 -8.2916,-6.2135 -28.644,-20.3666 -45.2273,-31.451 -16.5833,-11.0843 -32.6186,-22.3175 -35.6337,-24.9623 -3.0151,-2.646 -9.3702,-7.0844 -14.1222,-9.8662 -10.7086,-6.2687 -48.8696,-33.3356 -70.8504,-50.253 -9.0453,-6.9617 -22.6135,-16.828 -30.1515,-21.9253 -7.538,-5.0969 -14.322,-10.0248 -15.0758,-10.9507 -0.7544,-0.9267 -5.6877,-4.6742 -10.9641,-8.3294 -5.2766,-3.654 -11.985,-8.8383 -14.9074,-11.5177 -2.9224,-2.6785 -6.9314,-4.8713 -8.9085,-4.8713 -1.977,0 -3.5947,-1.2112 -3.5947,-2.6867 0,-1.4794 -2.9927,-3.4385 -6.6508,-4.3579 -3.6581,-0.9186 -8.7831,-4.0239 -11.3891,-6.9049 -2.6062,-2.8776 -6.2061,-5.2355 -8,-5.2355 -1.7937,0 -5.4945,-2.4671 -8.2233,-5.4822 -2.7285,-3.0159 -5.9894,-5.4818 -7.246,-5.4818 -1.2568,0 -4.4576,-1.7844 -7.1131,-3.9589 -2.6553,-2.1786 -12.8458,-9.8276 -22.6451,-17.0011 -9.7991,-7.1731 -26.7328,-19.6658 -37.6303,-27.7616 -12.4125,-9.2212 -21.1154,-13.9356 -23.2989,-12.6215 -1.9168,1.1543 -17.0536,12.0521 -33.637,24.2189 -30.9763,22.7268 -42.6108,30.9733 -50.4435,35.754 -2.47,1.5079 -8.7572,5.8245 -13.9711,9.5935 -10.4109,7.5255 -13.7028,9.6858 -27.148,17.8169 -4.9859,3.0159 -20.0144,13.4995 -33.3967,23.2991 -13.3823,9.7987 -33.6042,24.5412 -44.9375,32.7605 -11.3335,8.2193 -20.6062,15.9394 -20.6062,17.1559 0,1.2153 -5.9898,6.2098 -13.3109,11.0962 -7.3209,4.886 -22.9139,15.668 -34.6509,23.9596 -11.7372,8.2916 -24.0639,16.9259 -27.3929,19.1874 -55.1686,37.4762 -100.7615,69.8388 -115.4055,81.9161 -1.6494,1.3616 -6.586,4.3283 -10.9708,6.5959 -4.3848,2.2681 -10.3191,6.7159 -13.1875,9.8854 -2.8683,3.1703 -8.1077,5.7627 -11.643,5.7627 h -6.4278 z m 0,-306.7813 v -109.2021 l 6.1674,-2.9346 c 3.3922,-1.6136 9.251,-5.4156 13.02,-8.4461 14.0591,-11.3038 54.3284,-41.0802 80.4971,-59.5218 14.8756,-10.4828 35.8446,-25.5272 46.5979,-33.4319 10.7531,-7.9047 21.4014,-15.2156 23.6628,-16.2464 2.2615,-1.0323 4.7282,-2.7273 5.482,-3.7678 0.754,-1.0405 8.7714,-6.5874 17.8169,-12.3273 9.0455,-5.7399 22.6136,-14.927 30.1515,-20.4153 7.5379,-5.4883 24.8065,-17.8953 38.3747,-27.5705 13.5682,-9.6752 26.5197,-19.1509 28.7811,-21.0567 2.2615,-1.9063 9.8556,-7.4775 16.876,-12.3818 7.0204,-4.9042 22.8801,-16.3174 35.2435,-25.3631 12.3636,-9.0456 25.2524,-18.2964 28.6419,-20.5575 3.3894,-2.2599 22.684,-15.0721 42.8765,-28.4684 20.1924,-13.3959 37.1247,-25.422 37.6272,-26.7251 1.9957,-5.1745 14.6823,-1.9225 22.8167,5.8542 4.7327,4.523 10.2721,8.2233 12.3098,8.2233 2.038,0 3.7052,1.0934 3.7052,2.4265 0,1.3373 4.0089,4.4539 8.9085,6.9284 11.8062,5.9635 18.4253,10.1927 25.0367,15.9976 3.0049,2.6379 6.4501,4.797 7.6561,4.797 1.2068,0 4.3655,1.7802 7.0211,3.9588 4.7908,3.9264 21.4911,16.2435 61.0197,44.998 30.5489,22.222 42.3811,31.453 43.3999,33.8588 0.5024,1.1868 2.4286,2.1582 4.28,2.1582 1.8514,0 5.8039,2.1583 8.7833,4.797 6.4499,5.7115 10.9527,8.8903 57.2904,40.4412 65.1105,44.3339 184.2312,129.9918 197.1872,141.7944 2.9224,2.6622 6.3145,4.8408 7.5378,4.8408 1.2239,0 2.2241,48.7223 2.2241,108.2718 0,92.0079 -0.5889,108.2713 -3.9157,108.2713 -2.1538,0 -5.5457,-1.5405 -7.538,-3.4264 -5.7573,-5.4461 -31.2904,-24.1002 -63.9251,-46.7023 -16.5833,-11.4855 -33.2354,-23.193 -37.0042,-26.0162 -11.6294,-8.7127 -65.6398,-45.656 -71.456,-48.8768 -3.0244,-1.6746 -8.2281,-5.4119 -11.5636,-8.3042 -3.3353,-2.894 -12.2319,-9.472 -19.7699,-14.6209 -7.5378,-5.1486 -33.2168,-23.9226 -57.0647,-41.72 -23.8476,-17.7969 -44.3172,-32.3585 -45.4876,-32.3585 -1.1702,0 -4.3609,-2.4672 -7.0896,-5.4818 -2.7289,-3.0159 -5.9724,-5.4823 -7.208,-5.4823 -3.6471,0 -107.5449,-71.9096 -114.7688,-79.4335 -12.3235,-12.8353 -10.8347,-13.2325 -45.6886,12.1887 -17.8372,13.0098 -34.3791,25.1359 -36.7595,26.9475 -2.3806,1.8087 -6.2049,4.5266 -8.4985,6.0342 -2.2936,1.5079 -9.5969,6.4166 -16.2296,10.9083 -6.6328,4.4917 -14.063,9.4257 -16.5116,10.9641 -2.4489,1.5364 -11.4153,7.4226 -19.9258,13.076 -8.5106,5.6534 -16.5806,10.2788 -17.9332,10.2788 -1.3527,0 -2.8704,0.9511 -3.3732,2.1176 -1.0072,2.333 -76.2616,58.8373 -102.3325,76.8338 -9.0455,6.2436 -21.3802,14.8429 -27.4106,19.1094 -6.0303,4.2661 -24.3238,16.943 -40.6523,28.1709 -16.3285,11.2274 -32.3637,22.2797 -35.6337,24.5603 -3.2699,2.2802 -10.4874,8.2924 -16.0387,13.3601 -5.5513,5.0672 -12.5514,10.6023 -15.5559,12.2997 -11.2328,6.3463 -57.953,41.3504 -57.953,43.4201 0,1.1828 -3.0837,2.1542 -6.8526,2.1542 h -6.8525 z M 2248.4662,2004.96 c -19.7487,-14.4823 -28.2343,-20.0974 -33.3041,-22.0391 -2.6382,-1.012 -4.8594,-3.4182 -4.936,-5.3493 -0.1748,-4.5454 -20.8141,-19.5101 -125.7851,-91.2259 -25.1983,-17.2153 -91.0893,-64.8646 -101.5827,-73.4599 -2.2615,-1.8493 -8.4288,-6.3744 -13.7054,-10.0491 -5.2765,-3.6743 -10.2104,-7.51 -10.9642,-8.5229 -0.7544,-1.0121 -21.106,-14.8433 -45.2273,-30.7344 -24.1213,-15.8914 -54.9581,-37.0754 -68.5262,-47.0753 -13.5683,-10 -27.378,-20.0715 -30.6883,-22.3805 -5.6972,-3.9752 -7.0878,-3.4102 -26.0399,10.6007 -11.0117,8.1392 -26.8054,19.5325 -35.0972,25.3183 -8.2916,5.7859 -15.6924,11.2962 -16.4462,12.2452 -0.7535,0.9471 -7.5379,5.6745 -15.0758,10.5007 -7.5379,4.8267 -16.1147,10.6402 -19.0596,12.9191 -2.9447,2.2802 -6.8509,4.1434 -8.68,4.1434 -1.829,0 -3.7369,1.0121 -4.2393,2.2477 -0.5028,1.2356 -8.9313,7.6186 -18.7305,14.1852 -9.7993,6.5663 -18.4336,12.7073 -19.1874,13.6471 -0.7539,0.9389 -5.6877,4.6896 -10.9642,8.3335 -5.2765,3.6459 -25.6288,18.492 -45.2274,32.9954 -19.5985,14.5039 -49.8185,36.0186 -67.1556,47.8103 -17.3372,11.7916 -31.9333,22.4788 -32.4358,23.749 -0.5028,1.2681 -2.0876,2.3086 -3.522,2.3086 -2.8801,0 -83.615,55.8414 -87.3896,60.4441 -0.754,0.9185 -10.845,8.0278 -22.4248,15.7968 -11.5798,7.7693 -21.8288,15.3793 -22.7754,16.9108 -0.9467,1.5324 -4.1154,2.7842 -7.0416,2.7842 -5.1765,0 -5.3203,-2.9224 -5.3203,-108.0868 0,-102.1969 0.2723,-108.1729 4.9988,-109.6731 2.7493,-0.8739 7.376,-3.7313 10.2813,-6.3521 6,-5.4131 23.991,-19.1846 33.0825,-25.3236 3.3491,-2.2599 18.6631,-13.3626 34.0315,-24.6693 15.3683,-11.3067 30.6731,-22.4081 34.0106,-24.6696 14.1422,-9.5822 28.4468,-19.6346 42.5763,-29.9199 8.2916,-6.0358 34.1945,-24.0689 57.562,-40.0734 47.789,-32.7316 69.6143,-48.2727 119.8928,-85.3742 26.1709,-19.3122 43.1794,-31.4196 65.7426,-46.7998 54.9492,-37.455 59.1804,-38.85 78.4278,-25.8618 6.2768,4.2353 17.5798,11.8538 25.1176,16.9296 34.6904,23.3589 56.4976,38.5911 76.7495,53.6095 12.0605,8.9436 25.2415,18.1262 29.2908,20.4052 9.969,5.6111 35.8669,23.434 54.7112,37.6526 8.5117,6.4223 28.8639,20.6961 45.2272,31.7195 16.3636,11.0235 40.0583,27.3763 52.655,36.3398 12.597,8.9635 24.8343,17.5307 27.194,19.0382 2.3598,1.508 6.2381,4.2426 8.6187,6.0781 2.3806,1.8372 9.3923,6.7691 15.5817,10.9641 6.1894,4.195 32.331,23.0459 58.0927,41.8902 l 46.8393,34.2632 0.1545,110.3276 c 0.1341,90.8678 -0.4983,110.3272 -3.5459,110.3272 -2.0351,0 -9.1277,-3.9792 -15.7611,-8.8445 z"
       id="path1-0" />
    <path
       style="fill:#000000;stroke-width:0.284406"
       d="m 108.83356,261.35864 v -15.1373 l 1.33728,-0.82647 c 0.7355,-0.45434 1.54605,-1.02862 1.80123,-1.27565 0.25517,-0.24684 2.59698,-1.97874 5.20403,-3.84827 5.64387,-4.04716 5.10556,-3.64826 7.146,-5.29535 0.90612,-0.7315 1.8881,-1.3299 2.18215,-1.3299 0.4919,0 5.40563,-3.20855 5.8401,-3.81341 0.10425,-0.14508 2.152,-1.56298 4.55048,-3.15064 2.39848,-1.58771 5.23593,-3.52855 6.30545,-4.31307 1.0695,-0.78447 3.71447,-2.69342 5.87769,-4.24205 2.16323,-1.54864 4.50397,-3.25505 5.20167,-3.79205 2.88253,-2.21861 6.6159,-4.83449 11.68165,-8.18513 2.95134,-1.95209 5.48268,-3.73796 5.62521,-3.96855 0.34947,-0.56545 1.52196,-0.14957 2.72775,0.96817 0.54515,0.50494 1.13359,0.91857 1.30765,0.91857 0.63431,0 16.21673,10.78921 17.01626,11.78201 0.10436,0.12932 1.21348,0.94095 2.46484,1.80324 1.25139,0.86229 3.72572,2.61999 5.49851,3.90603 1.77279,1.28603 4.67371,3.29102 6.4465,4.45555 1.7728,1.16448 3.3939,2.25123 3.60248,2.41497 1.09144,0.85701 5.68835,4.14293 8.34722,5.96675 3.46284,2.37527 10.11165,7.22258 12.84413,9.36405 1.01852,0.79825 2.42632,1.77996 3.12846,2.18168 l 1.2766,0.73035 v 14.9119 c 0,12.99646 -0.0729,14.91193 -0.56832,14.91193 -0.51635,0 -5.46809,-3.38345 -10.80787,-7.38487 -1.14709,-0.85958 -3.9627,-2.81756 -6.25689,-4.35103 -2.29421,-1.53343 -4.51257,-3.08747 -4.9297,-3.45336 -0.41711,-0.36606 -1.2963,-0.9801 -1.95371,-1.36493 -1.48146,-0.86723 -6.76079,-4.61176 -9.80169,-6.95217 -1.25136,-0.96311 -3.12843,-2.32806 -4.17126,-3.03322 -1.04284,-0.70512 -1.98136,-1.38687 -2.08564,-1.51495 -0.10436,-0.12822 -0.78686,-0.64664 -1.51682,-1.15234 -0.72998,-0.5055 -1.65804,-1.22271 -2.06233,-1.59339 -0.40429,-0.37055 -0.95891,-0.6739 -1.23243,-0.6739 -0.27351,0 -0.49731,-0.16758 -0.49731,-0.37169 0,-0.20468 -0.41401,-0.47571 -0.92009,-0.6029 -0.50608,-0.12708 -1.21509,-0.55668 -1.5756,-0.95524 -0.36056,-0.39811 -0.85858,-0.72429 -1.10675,-0.72429 -0.24815,0 -0.76014,-0.34132 -1.13764,-0.75844 -0.37747,-0.41723 -0.82859,-0.75837 -1.00244,-0.75837 -0.17387,0 -0.61669,-0.24685 -0.98406,-0.54768 -0.36735,-0.30139 -1.77713,-1.35959 -3.1328,-2.35199 -1.35564,-0.99236 -3.69831,-2.72064 -5.2059,-3.84063 -1.71719,-1.2757 -2.92118,-1.92791 -3.22325,-1.74612 -0.26518,0.1597 -2.35925,1.66734 -4.65345,3.35053 -4.28538,3.1441 -5.89493,4.28496 -6.97854,4.94634 -0.3417,0.20861 -1.2115,0.80577 -1.93281,1.32719 -1.44027,1.0411 -1.89569,1.33997 -3.75574,2.46485 -0.68977,0.41723 -2.76887,1.86757 -4.62023,3.22326 -1.85134,1.35562 -4.64891,3.39513 -6.2168,4.53223 -1.5679,1.13706 -2.85073,2.2051 -2.85073,2.3734 0,0.16815 -0.82865,0.85909 -1.84148,1.53508 -1.0128,0.67596 -3.16998,2.16757 -4.79373,3.31467 -1.62375,1.1471 -3.32908,2.34158 -3.78962,2.65445 -7.63221,5.18458 -13.9397,9.66173 -15.9656,11.33254 -0.22818,0.18839 -0.91112,0.59882 -1.51773,0.91251 -0.60661,0.31377 -1.42758,0.9291 -1.82441,1.36759 -0.39681,0.43859 -1.12164,0.79722 -1.61073,0.79722 h -0.88924 z m 0,-42.44118 v -15.1074 l 0.85321,-0.40598 c 0.4693,-0.22323 1.27982,-0.74921 1.80123,-1.16845 1.94499,-1.56382 7.51599,-5.68318 11.13625,-8.23446 2.05795,-1.45022 4.95887,-3.53153 6.44651,-4.62509 1.48763,-1.09356 2.96075,-2.10498 3.27359,-2.24758 0.31287,-0.14282 0.65413,-0.3773 0.75841,-0.52124 0.1043,-0.14395 1.21346,-0.91133 2.46485,-1.70541 1.25138,-0.79408 3.12844,-2.06505 4.17126,-2.82433 1.04283,-0.75927 3.43182,-2.47569 5.30889,-3.8142 1.87708,-1.3385 3.66883,-2.64939 3.98167,-2.91305 0.31286,-0.26372 1.36346,-1.03447 2.33469,-1.71294 0.97123,-0.67846 3.16531,-2.25741 4.87571,-3.50882 1.71041,-1.25139 3.49351,-2.53119 3.96242,-2.844 0.4689,-0.31263 3.13817,-2.08512 5.93168,-3.9384 2.79348,-1.85324 5.13595,-3.51698 5.20548,-3.69725 0.27609,-0.71587 2.03121,-0.26597 3.15654,0.80988 0.65474,0.62573 1.42107,1.13765 1.70298,1.13765 0.28194,0 0.5126,0.15126 0.5126,0.3357 0,0.18499 0.55459,0.61617 1.23242,0.95849 1.63332,0.82501 2.54902,1.41008 3.46366,2.21316 0.41572,0.36493 0.89234,0.66363 1.05917,0.66363 0.16695,0 0.60394,0.24628 0.97133,0.54768 0.66277,0.54318 2.97315,2.24718 8.44167,6.22518 4.22624,3.07427 5.86316,4.35131 6.00409,4.68413 0.0695,0.16419 0.33598,0.29858 0.59212,0.29858 0.25613,0 0.80294,0.29859 1.21511,0.66363 0.8923,0.79015 1.51523,1.22993 7.92575,5.59478 9.00761,6.1333 25.48718,17.98351 27.27956,19.61632 0.4043,0.36831 0.87357,0.6697 1.04281,0.6697 0.16931,0 0.30769,6.74042 0.30769,14.97869 0,12.72869 -0.0815,14.97863 -0.54172,14.97863 -0.29797,0 -0.76721,-0.21312 -1.04284,-0.47402 -0.79648,-0.75343 -4.32881,-3.33411 -8.84361,-6.46095 -2.29419,-1.58895 -4.59789,-3.20861 -5.1193,-3.59918 -1.60885,-1.20535 -9.08082,-6.31621 -9.88546,-6.76179 -0.41841,-0.23166 -1.1383,-0.7487 -1.59974,-1.14883 -0.46143,-0.40036 -1.69221,-1.31038 -2.73505,-2.02271 -1.0428,-0.71226 -4.59532,-3.30953 -7.89452,-5.77168 -3.29917,-2.46208 -6.13101,-4.47659 -6.29292,-4.47659 -0.16188,0 -0.60329,-0.34132 -0.9808,-0.75838 -0.37753,-0.41722 -0.82623,-0.75842 -0.99717,-0.75842 -0.50455,0 -14.87814,-9.94824 -15.87751,-10.98911 -1.70488,-1.77569 -1.49891,-1.83063 -6.32072,1.68623 -2.46766,1.79981 -4.75611,3.47738 -5.08545,3.728 -0.32933,0.25022 -0.85839,0.62624 -1.17569,0.83479 -0.31731,0.20862 -1.32768,0.8877 -2.24526,1.50911 -0.91761,0.62139 -1.94553,1.30397 -2.28427,1.5168 -0.33879,0.21255 -1.57924,1.02688 -2.75662,1.80898 -1.17738,0.7821 -2.2938,1.422 -2.48094,1.422 -0.18713,0 -0.39709,0.13158 -0.46665,0.29296 -0.13934,0.32276 -10.55029,8.13976 -14.15704,10.62945 -1.25139,0.86375 -2.95782,2.05342 -3.79207,2.64366 -0.83425,0.5902 -3.36505,2.34395 -5.62398,3.89726 -2.25894,1.55324 -4.4773,3.08224 -4.92969,3.39776 -0.45237,0.31544 -1.45087,1.1472 -2.21884,1.84828 -0.76799,0.70102 -1.73642,1.46676 -2.15207,1.70158 -1.55397,0.87797 -8.01741,5.72057 -8.01741,6.00689 0,0.16363 -0.42662,0.29802 -0.94801,0.29802 h -0.948 z M 233.55457,191.847 c -2.73211,-2.00354 -3.90603,-2.78035 -4.60739,-3.04896 -0.36499,-0.14003 -0.67228,-0.4729 -0.68288,-0.74005 -0.0241,-0.62882 -2.87948,-2.6991 -17.40155,-12.62051 -3.486,-2.38162 -12.60159,-8.97359 -14.05329,-10.16269 -0.31287,-0.25584 -1.16606,-0.88185 -1.89605,-1.39022 -0.72996,-0.50832 -1.41255,-1.03897 -1.51682,-1.17909 -0.10437,-0.14002 -2.91988,-2.05347 -6.2569,-4.25191 -3.33702,-2.19847 -7.60309,-5.12914 -9.48016,-6.51256 -1.87709,-1.38343 -3.78756,-2.77676 -4.24553,-3.0962 -0.78817,-0.54994 -0.98054,-0.47177 -3.60244,1.46653 -1.52341,1.12601 -3.70836,2.7022 -4.85546,3.50263 -1.1471,0.80044 -2.17096,1.56275 -2.27523,1.69405 -0.10425,0.13101 -1.04282,0.78503 -2.08564,1.4527 -1.04282,0.66773 -2.22937,1.47199 -2.63677,1.78727 -0.40739,0.31545 -0.94777,0.57322 -1.20082,0.57322 -0.25304,0 -0.51698,0.14001 -0.58648,0.31095 -0.0695,0.17094 -1.23559,1.05398 -2.59125,1.96243 -1.35566,0.90839 -2.55016,1.75798 -2.65444,1.88798 -0.10431,0.12989 -0.78687,0.64878 -1.51683,1.15289 -0.72996,0.50438 -3.54559,2.55825 -6.25691,4.5647 -2.71132,2.00652 -6.89207,4.98294 -9.29055,6.61423 -2.39848,1.6313 -4.41776,3.10981 -4.48729,3.28553 -0.0695,0.17544 -0.28878,0.31938 -0.48722,0.31938 -0.39845,0 -11.5676,7.72528 -12.08979,8.36204 -0.10431,0.12708 -1.50033,1.1106 -3.10232,2.18538 -1.60198,1.07484 -3.01986,2.12763 -3.15084,2.33951 -0.13095,0.21199 -0.56932,0.38518 -0.97415,0.38518 -0.71612,0 -0.73603,-0.4043 -0.73603,-14.9531 0,-14.13827 0.0377,-14.96503 0.69156,-15.17257 0.38034,-0.1209 1.02042,-0.5162 1.42234,-0.87877 0.83007,-0.74887 3.319,-2.65405 4.57675,-3.50335 0.46333,-0.31265 2.58192,-1.84862 4.70803,-3.41283 2.12611,-1.56421 4.24343,-3.10002 4.70515,-3.41289 1.95648,-1.32563 3.93543,-2.71631 5.89014,-4.13921 1.1471,-0.83502 4.7306,-3.32977 7.96333,-5.54389 6.61131,-4.52821 9.63069,-6.67823 16.5864,-11.81096 3.62056,-2.67172 5.97357,-4.3467 9.09505,-6.47445 7.60186,-5.18166 8.18722,-5.37464 10.84998,-3.57781 0.86834,0.58592 2.43204,1.6399 3.47484,2.3421 4.79919,3.23154 7.81607,5.33882 10.6178,7.41652 1.66848,1.23729 3.49198,2.50763 4.05218,2.82291 1.37915,0.77627 4.96196,3.24196 7.56894,5.209 1.17754,0.88849 3.99313,2.86318 6.25689,4.38819 2.26379,1.52502 5.54179,3.78733 7.28448,5.02737 1.74271,1.24004 3.43565,2.42526 3.7621,2.63382 0.32647,0.20861 0.863,0.58692 1.19234,0.84086 0.32934,0.25416 1.29937,0.93646 2.15563,1.5168 0.85626,0.58035 4.47278,3.18825 8.03674,5.79526 l 6.47992,4.74008 0.0213,15.26309 c 0.0186,12.57097 -0.069,15.26304 -0.49056,15.26304 -0.28154,0 -1.26275,-0.55049 -2.18042,-1.22356 z"
       id="path1-9" />
  </g>
</svg>
