<?xml version="1.0" encoding="UTF-8" standalone="no"?>
<!-- Created with Inkscape (http://www.inkscape.org/) -->

<svg
   version="1.1"
   id="svg1"
   width="100"
   height="100"
   viewBox="0 0 100 100"
   sodipodi:docname="extract.svg"
   inkscape:version="1.3.2 (091e20e, 2023-11-25, custom)"
   xmlns:inkscape="http://www.inkscape.org/namespaces/inkscape"
   xmlns:sodipodi="http://sodipodi.sourceforge.net/DTD/sodipodi-0.dtd"
   xmlns="http://www.w3.org/2000/svg"
   xmlns:svg="http://www.w3.org/2000/svg">
  <defs
     id="defs1" />
  <sodipodi:namedview
     id="namedview1"
     pagecolor="#505050"
     bordercolor="#eeeeee"
     borderopacity="1"
     inkscape:showpageshadow="0"
     inkscape:pageopacity="0"
     inkscape:pagecheckerboard="0"
     inkscape:deskcolor="#505050"
     showgrid="false"
     inkscape:zoom="2.8743891"
     inkscape:cx="18.786601"
     inkscape:cy="89.932154"
     inkscape:window-width="1920"
     inkscape:window-height="1009"
     inkscape:window-x="-8"
     inkscape:window-y="-8"
     inkscape:window-maximized="1"
     inkscape:current-layer="g1" />
  <g
     inkscape:groupmode="layer"
     inkscape:label="Image"
     id="g1">
    <path
       style="fill:#000000;fill-opacity:1;stroke-width:1.57761"
       d="m 12.888873,87.677369 c -2.671926,-1.897837 -2.511326,0.413935 -2.511326,-36.151579 0,-36.302573 -0.135043,-34.206744 2.32422,-36.051984 1.025875,-0.769734 1.771661,-0.800451 22.001722,-0.906418 l 20.939846,-0.109647 1.368563,0.914353 c 2.493499,1.665912 2.761535,2.750396 2.76223,11.176133 6.31e-4,7.697321 -0.210438,8.92551 -1.754086,10.206627 -0.815958,0.677175 -3.147356,0.712545 -4.355304,0.0661 C 52.073667,35.969437 51.807461,34.76272 51.807461,28.40197 V 22.44525 H 35.076137 18.34483 v 29.080603 29.080619 h 16.731307 16.731324 v -5.956725 c 0,-3.517716 0.181126,-6.354267 0.442363,-6.927618 0.997367,-2.189003 4.48757,-2.682812 6.282832,-0.888923 l 1.042913,1.042093 0.114535,8.058626 c 0.128891,9.061533 -0.08755,10.014821 -2.663297,11.735573 l -1.353593,0.904256 H 34.911971 14.150727 Z m 57.77483,-18.078242 c -1.655405,-0.803763 -2.518581,-2.584385 -2.116668,-4.366442 0.19403,-0.860273 1.559376,-2.803752 3.734086,-5.315187 1.885517,-2.17747 3.428203,-4.060069 3.428203,-4.183549 0,-0.123527 -8.512206,-0.22451 -18.916035,-0.22451 H 37.87727 l -1.291924,-1.154324 c -1.768931,-1.580549 -1.821671,-3.836411 -0.130942,-5.601161 l 1.160967,-1.211813 h 19.046976 c 10.47583,0 19.046961,-0.100969 19.046961,-0.224495 0,-0.123526 -1.533204,-1.99513 -3.407126,-4.159206 -3.835905,-4.429861 -4.46266,-5.816868 -3.523174,-7.79671 1.158977,-2.442337 4.113202,-3.026211 6.223498,-1.229987 1.308646,1.113874 12.850502,14.672079 13.460739,15.812284 0.995159,1.859486 0.188731,3.241586 -6.420652,11.004064 -3.516076,4.129514 -6.782795,7.796553 -7.259391,8.148975 -1.356844,1.003363 -2.739891,1.171915 -4.119513,0.502061 z"
       id="path1" />
  </g>
</svg>
