<?xml version="1.0" encoding="UTF-8" standalone="no"?>
<svg
   height="45.5"
   viewBox="0 0 345.75 489.31"
   width="32.2"
   version="1.1"
   id="svg11"
   sodipodi:docname="helmet.svg"
   inkscape:version="1.3.2 (091e20e, 2023-11-25, custom)"
   xml:space="preserve"
   xmlns:inkscape="http://www.inkscape.org/namespaces/inkscape"
   xmlns:sodipodi="http://sodipodi.sourceforge.net/DTD/sodipodi-0.dtd"
   xmlns="http://www.w3.org/2000/svg"
   xmlns:svg="http://www.w3.org/2000/svg"><defs
     id="defs11" /><sodipodi:namedview
     id="namedview11"
     pagecolor="#505050"
     bordercolor="#eeeeee"
     borderopacity="1"
     inkscape:showpageshadow="0"
     inkscape:pageopacity="0"
     inkscape:pagecheckerboard="0"
     inkscape:deskcolor="#505050"
     inkscape:zoom="6.3173384"
     inkscape:cx="31.500608"
     inkscape:cy="73.448654"
     inkscape:window-width="1350"
     inkscape:window-height="1212"
     inkscape:window-x="2518"
     inkscape:window-y="93"
     inkscape:window-maximized="0"
     inkscape:current-layer="svg11" /><g
     stroke="#000"
     stroke-miterlimit="10"
     id="g11" /><path
     fill="#000000"
     d="m 176.63717,67.426558 c -12.8126,0 -24.42839,1.339449 -32.33894,3.317089 -2.4529,0.61342 -4.36823,1.286886 -5.96895,1.938598 1.60072,0.651723 3.51605,1.325187 5.96895,1.93858 7.91055,1.97764 19.52634,3.317118 32.33894,3.317118 12.81259,0 24.42841,-1.339478 32.33896,-3.317118 2.45288,-0.613393 4.36822,-1.286857 5.96895,-1.93858 -1.60073,-0.651712 -3.51607,-1.325178 -5.96895,-1.938598 -7.91055,-1.97764 -19.52637,-3.317089 -32.33896,-3.317089 z m -54.21082,8.739475 c -3.44248,1.481335 -6.18668,3.040765 -8.02018,4.484577 -2.70664,2.133789 -3.08957,3.466477 -3.08957,4.044615 0,0.57814 0.38293,1.910827 3.08957,4.044617 2.70744,2.133817 7.36773,4.52364 13.40049,6.534322 12.06553,4.021345 29.53467,6.689726 48.83051,6.689726 19.29584,0 36.76499,-2.668381 48.83051,-6.689726 6.03276,-2.010682 10.69305,-4.399764 13.40049,-6.534322 2.70668,-2.13379 3.08956,-3.466477 3.08956,-4.044617 0,-0.578138 -0.38288,-1.910826 -3.08956,-4.044615 -1.83199,-1.443812 -4.5777,-3.003242 -8.02018,-4.485347 -1.18625,3.296057 -3.94627,5.503449 -6.49603,7.010336 -3.35913,1.985871 -7.35794,3.371139 -12.09706,4.555912 -9.48199,2.37107 -21.89288,3.721028 -35.61773,3.721028 -13.72483,0 -26.13574,-1.349958 -35.61696,-3.720298 -4.73989,-1.184771 -8.73797,-2.570001 -12.09784,-4.555912 -2.55052,-1.507617 -5.31126,-3.715009 -6.49675,-7.011066 z m 123.27793,24.320237 c -4.34341,3.07307 -9.70496,5.52147 -15.96222,7.60799 -14.02367,4.6738 -32.59274,7.38423 -53.10489,7.38423 -20.51214,0 -39.08197,-2.71043 -53.10488,-7.38348 -6.25425,-2.08499 -11.61277,-4.53189 -15.95474,-7.60197 -18.475947,12.17066 -34.244482,29.06841 -45.957126,49.28325 2.459644,3.95377 4.497333,8.63206 6.27377,13.95758 3.442459,10.32816 5.81428,23.12651 6.82787,37.34686 l 15.023715,-15.02598 h 14.319471 c 12.01751,-28.214 40.02802,-48.05194 72.57192,-48.05194 32.54391,0 60.55442,19.83794 72.57192,48.05194 h 25.54711 v 61.56652 h -25.54711 c -12.0175,28.21399 -40.02801,48.05192 -72.57192,48.05192 -32.5439,0 -60.55441,-19.83793 -72.57192,-48.05192 H 89.747294 l -15.02523,-15.02525 c -1.01359,14.22039 -3.386177,27.01871 -6.82787,37.34535 -2.33727,7.01108 -5.125052,12.90646 -8.739445,17.49391 -2.500208,3.17218 -5.658871,5.89537 -9.372382,7.27537 4.722612,12.79983 10.913038,24.72123 18.330289,35.49985 h 29.689343 v -24.02595 h 37.540561 v 24.02595 h 82.58922 v -24.02595 h 37.54056 v 24.02595 h 29.68934 c 7.418,-10.77862 13.60696,-22.70002 18.3303,-35.50062 -3.7135,-1.37923 -6.87144,-4.10242 -9.37162,-7.27534 -3.61516,-4.58748 -6.40293,-10.48132 -8.73943,-17.49239 -4.67532,-14.02292 -7.38423,-32.59198 -7.38423,-53.10417 0,-20.51214 2.71043,-39.08196 7.38346,-53.10485 1.77341,-5.31952 3.80886,-9.9933 6.26625,-13.94482 C 279.9308,129.57649 264.18175,112.6562 245.70428,100.48704 Z M 44.494412,151.51741 c -0.57814,0 -1.910828,0.38293 -4.044616,3.08961 -1.443814,1.83197 -3.003243,4.57771 -4.485348,8.02016 3.296057,1.1863 5.50343,3.94626 7.010307,6.49602 1.985901,3.35912 3.371137,7.35795 4.555939,12.09782 2.371045,9.48124 3.721002,21.89216 3.721002,35.61696 0,13.72486 -1.349957,26.13575 -3.720263,35.61702 -1.184765,4.73987 -2.570036,8.73792 -4.555919,12.09783 -1.507636,2.55049 -3.715009,5.31121 -7.011066,6.49675 1.481336,3.44248 3.040766,6.1867 4.484579,8.02016 2.134557,2.70593 3.467245,3.08886 4.045385,3.08886 0.578109,0 1.910801,-0.38293 4.044617,-3.0896 2.133787,-2.70742 4.523636,-7.36772 6.53432,-13.40049 4.021312,-12.06554 6.689703,-29.53466 6.689703,-48.83053 0,-19.29584 -2.668391,-36.76495 -6.689703,-48.83049 -2.010684,-6.03277 -4.399767,-10.69306 -6.53432,-13.40047 -2.133816,-2.70668 -3.466508,-3.08961 -4.044617,-3.08961 z m 132.142758,0 c -30.1676,0 -55.46391,20.30648 -63.01709,48.03467 H 97.702899 v 0.0171 h -2.357561 l -17.268675,17.26862 17.268675,17.26866 h 2.456661 v -0.0165 h 15.809841 c 7.5404,27.74549 32.84572,48.06843 63.02533,48.06843 30.17963,0 55.48496,-20.32294 63.02534,-48.06695 h 15.80983 v 0.0147 h 5.76924 v -0.0147 h 0.0188 v -34.53953 h -21.60744 c -7.55166,-27.72748 -32.848,-48.03468 -63.0156,-48.03468 z m 132.14276,0 c -0.5781,0 -1.9108,0.38293 -4.0446,3.08961 -2.13378,2.70741 -4.52366,7.3677 -6.5343,13.40047 -4.02134,12.06554 -6.68973,29.53465 -6.68973,48.83049 0,19.29587 2.66839,36.76499 6.68973,48.83053 2.01064,6.03277 4.39974,10.69307 6.5343,13.40049 2.1338,2.70667 3.4665,3.0896 4.0446,3.0896 0.57814,0 1.91083,-0.38293 4.04466,-3.0896 1.44378,-1.83197 3.00323,-4.57771 4.48532,-8.02018 -3.29607,-1.18627 -5.50344,-3.94624 -7.01032,-6.49599 -1.98591,-3.35914 -3.37113,-7.35796 -4.55593,-12.09711 -2.37104,-9.48199 -3.721,-21.89288 -3.721,-35.61774 0,-13.7248 1.34996,-26.13572 3.72026,-35.61696 1.18477,-4.73987 2.57002,-8.73792 4.55593,-12.09782 1.50762,-2.55049 3.71499,-5.31123 7.01106,-6.49676 -1.48135,-3.44248 -3.04077,-6.18668 -4.48459,-8.02019 -2.13456,-2.70591 -3.46725,-3.08884 -4.04539,-3.08884 z m -132.14276,10.51136 c 30.19014,0 54.80922,24.61913 54.80922,54.80921 0,30.19014 -24.61908,54.80924 -54.80922,54.80924 -30.19013,0 -54.80921,-24.6191 -54.80921,-54.80924 0,-30.19008 24.61908,-54.80921 54.80921,-54.80921 z m 0,13.51459 c -1.98438,0 -3.93123,0.14718 -5.83905,0.41524 l 5.83905,5.83905 5.83907,-5.83905 c -1.90706,-0.26806 -3.85466,-0.41524 -5.83907,-0.41524 z m -144.155729,2.98826 c -0.651713,1.59923 -1.325188,3.5138 -1.938608,5.96746 -1.977641,7.91053 -3.317089,19.52633 -3.317089,32.3389 0,12.81263 1.339448,24.42841 3.317089,32.33896 0.61342,2.45292 1.286895,4.36822 1.938608,5.96897 0.651684,-1.60075 1.325187,-3.51605 1.938578,-5.96897 1.977631,-7.91055 3.317078,-19.52633 3.317078,-32.33896 0,-12.81257 -1.339447,-24.42837 -3.317078,-32.3389 -0.613391,-2.45292 -1.286894,-4.36823 -1.938578,-5.96897 z m 288.311459,0 c -0.65168,1.59923 -1.32513,3.5138 -1.93858,5.96746 -1.97762,7.91053 -3.31706,19.52633 -3.31706,32.3389 0,12.81263 1.33944,24.42841 3.31706,32.33896 0.61345,2.45292 1.2869,4.36822 1.93858,5.96897 0.65173,-1.60075 1.32521,-3.51605 1.93862,-5.96897 1.97762,-7.91055 3.31709,-19.52633 3.31709,-32.33896 0,-12.81257 -1.33947,-24.42837 -3.31709,-32.3389 -0.61341,-2.45292 -1.28689,-4.36823 -1.93862,-5.96897 z m -164.3075,2.22765 c -6.67997,3.72405 -12.20217,9.24698 -15.92696,15.92697 l 10.59545,10.59393 15.9247,-15.92471 -10.59393,-10.59619 z m 40.30355,0 -10.59396,10.59545 15.9247,15.92473 10.59621,-10.59398 c -3.72402,-6.67994 -9.24699,-12.20215 -15.92695,-15.92696 z m -20.15178,20.15179 -15.92695,15.92692 15.92695,15.927 15.92695,-15.927 z m -40.87942,10.08788 c -0.26804,1.90707 -0.41519,3.85466 -0.41519,5.83904 0,1.98441 0.14712,3.93129 0.41519,5.83907 l 5.83905,-5.83907 z m 81.75886,0 -5.83907,5.83904 5.83907,5.83907 c 0.26802,-1.90704 0.41517,-3.85466 0.41517,-5.83907 0,-1.98438 -0.1471,-3.93123 -0.41517,-5.83904 z m -66.36196,15.39689 -10.59621,10.59395 c 3.72402,6.67996 9.24699,12.20219 15.92696,15.92698 l 10.59395,-10.59548 -15.9247,-15.9247 z m 50.96504,0 -15.9247,15.92471 10.59396,10.59622 c 6.67996,-3.72405 12.20221,-9.24702 15.92695,-15.92698 l -10.59543,-10.59395 z m -25.48252,25.48252 -5.83905,5.83907 c 1.90705,0.26804 3.85467,0.41519 5.83905,0.41519 1.98441,0 3.93124,-0.1471 5.83907,-0.41519 z m -65.32057,67.82078 v 10.51137 h 10.51136 v -10.51137 z m 120.12979,0 v 10.51137 h 10.51134 V 319.69913 Z M 75.27767,343.72509 v 22.52434 H 277.9967 V 343.72509 Z M 5.0017341,379.76403 c 1.856765,3.7811 5.1926049,7.51188 10.7478759,11.32076 8.82201,6.05002 22.302835,11.55271 38.744092,15.93746 32.884034,8.76945 77.545278,13.2856 122.143468,13.2856 44.59819,0 89.25946,-4.51689 122.14346,-13.2856 16.44128,-4.38475 29.92133,-9.88821 38.74413,-15.93746 5.556,-3.80888 8.89108,-7.53966 10.74785,-11.32076 z"
     id="path1-9"
     style="stroke-width:0.750809" /></svg>
