<?xml version="1.0" encoding="UTF-8" standalone="no"?>
<svg
   height="45.5"
   viewBox="0 0 345.75 489.31"
   width="32.2"
   version="1.1"
   id="svg11"
   sodipodi:docname="key.svg"
   inkscape:version="1.3.2 (091e20e, 2023-11-25, custom)"
   xml:space="preserve"
   xmlns:inkscape="http://www.inkscape.org/namespaces/inkscape"
   xmlns:sodipodi="http://sodipodi.sourceforge.net/DTD/sodipodi-0.dtd"
   xmlns="http://www.w3.org/2000/svg"
   xmlns:svg="http://www.w3.org/2000/svg"><defs
     id="defs11" /><sodipodi:namedview
     id="namedview11"
     pagecolor="#505050"
     bordercolor="#eeeeee"
     borderopacity="1"
     inkscape:showpageshadow="0"
     inkscape:pageopacity="0"
     inkscape:pagecheckerboard="0"
     inkscape:deskcolor="#505050"
     inkscape:zoom="8.9340656"
     inkscape:cx="33.243544"
     inkscape:cy="28.038746"
     inkscape:window-width="2560"
     inkscape:window-height="1369"
     inkscape:window-x="1912"
     inkscape:window-y="-8"
     inkscape:window-maximized="1"
     inkscape:current-layer="svg11"
     showguides="true" /><style
     type="text/css"
     id="style1">
	.st0{fill:#000000;}
</style><path
     fill-rule="evenodd"
     clip-rule="evenodd"
     d="m 287.7947,114.97257 c 0,42.67671 -34.22785,77.27354 -76.45147,77.27354 -7.70387,0 -25.24635,-1.79754 -33.78035,-8.98546 l -10.66751,10.783 c -6.27157,6.3394 -4.57855,8.20617 -1.78873,11.28018 1.16388,1.28284 2.52028,2.77669 3.56647,4.89243 0,0 8.88977,12.57932 0,25.15852 -5.33431,7.18792 -20.26914,17.25114 -37.33671,0 l -3.55547,3.59396 c 0,0 10.66752,12.57921 1.77774,25.15841 -5.33319,7.18904 -19.55715,14.37675 -32.002728,1.79754 L 85.110485,278.5039 c -8.534437,8.62596 -18.964327,3.59395 -23.112635,0 L 51.330353,267.72089 c -9.95685,-10.06288 -4.148415,-20.96533 0,-25.15841 l 92.452397,-93.44593 c 0,0 -8.88977,-14.37697 -8.88977,-34.14444 0,-42.676924 34.22798,-77.273309 76.45036,-77.273309 42.22359,0 76.45147,34.596385 76.45147,77.273309 z m -76.44784,26.95673 c 14.72823,0 26.66776,-12.0683 26.66776,-26.95562 0,-14.88731 -11.93953,-26.955947 -26.66776,-26.955947 -14.72945,0 -26.66908,12.068637 -26.66908,26.955947 0,14.88732 11.93963,26.95562 26.66908,26.95562 z"
     fill="#1c274c"
     id="path1-3"
     style="stroke-width:12.1879;fill:#000000;fill-opacity:1" /></svg>
