<?xml version="1.0" encoding="UTF-8" standalone="no"?>
<svg
   height="45.5"
   viewBox="0 0 345.75 489.31"
   width="32.2"
   version="1.1"
   id="svg9"
   sodipodi:docname="wolf.svg"
   xml:space="preserve"
   inkscape:version="1.3.2 (091e20e, 2023-11-25, custom)"
   xmlns:inkscape="http://www.inkscape.org/namespaces/inkscape"
   xmlns:sodipodi="http://sodipodi.sourceforge.net/DTD/sodipodi-0.dtd"
   xmlns="http://www.w3.org/2000/svg"
   xmlns:svg="http://www.w3.org/2000/svg"><defs
     id="defs9" /><sodipodi:namedview
     id="namedview9"
     pagecolor="#ffffff"
     bordercolor="#000000"
     borderopacity="0.25"
     inkscape:showpageshadow="2"
     inkscape:pageopacity="0.0"
     inkscape:pagecheckerboard="0"
     inkscape:deskcolor="#d1d1d1"
     inkscape:zoom="8.9340658"
     inkscape:cx="16.00615"
     inkscape:cy="52.94342"
     inkscape:window-width="1350"
     inkscape:window-height="1212"
     inkscape:window-x="2582"
     inkscape:window-y="162"
     inkscape:window-maximized="0"
     inkscape:current-layer="svg9" /><g
     stroke-miterlimit="10"
     id="g9"><path
       d="m338.25 172.94c0 19.96-3.55 39.09-10.04 56.8-20.63 56.33-127.49 215.19-150.83 249.59-2.2 3.24-6.95 3.33-9.26.16-27.06-37.13-160.62-224.53-160.62-306.61 0-92.46 75.87-167.2 168.75-165.35 89.71 1.79 162.04 75.67 162 165.41z"
       fill="#5db670"
       stroke="#000"
       stroke-width="15"
       id="path1"
       style="fill:#6f6d32;fill-opacity:1" /><g
       stroke="#1d1d1b"
       id="g8" /></g><g
     id="g1"
     transform="matrix(7.8534208,0,0,7.8534208,38.987976,34.813858)"><path
       fill="#d99e82"
       d="m 12.75,17.75 c 1.226,2.195 1.856,-1.361 9.312,-2.625 7.456,-1.264 13.729,4.454 13.859,5.413 C 36.053,21.496 31.474,30 26.459,30 H 10.75 c -4.143,0 -7.022,-7.224 -4,-11.438 0,0 4.5,-3.5 6,-0.812 z"
       id="path1-9" /><path
       fill="#c1694f"
       d="M 13.008,18.136 C 8.02,25.073 6.969,30 10.75,30 6.607,30 4.172,23.812 6.282,18.969 6.745,17.905 8.04,16.477 8.04,16.477 l 4.179,-0.008 c 0.162,0.32 0.599,1.365 0.789,1.667 z"
       id="path2" /><path
       fill="#e1e8ed"
       d="M 20.062,22.75 C 26.734,20.068 35.791,19.579 35.921,20.538 36.053,21.496 31.474,30 26.459,30 H 11.813 c -4.143,0 1.232,-4.429 8.249,-7.25 z"
       id="path3" /><path
       fill="#292f33"
       d="m 25.359,21.125 c 6,-1.312 10.468,-1.282 10.563,-0.587 0.079,0.578 -1.559,3.907 -3.973,6.454 2.204,-2.804 1.42,-6.113 -6.59,-5.867 z"
       id="path4" /><path
       fill="#3e721d"
       d="m 7.125,6.125 c 1.562,-4.938 10.44,-4.143 10.062,0.688 -0.378,4.829 -6.453,7.859 -4.179,11.323 -1.586,1.38 -5.016,0.913 -6.727,0.833 A 156.185,156.185 0 0 1 8.093,15.563 C 11.009,10.328 5.962,9.799 7.125,6.125 Z"
       id="path5" /><path
       fill="#ffcc4d"
       d="M 1.893,9.045 C 2.461,7.945 2.442,9.151 5.245,9.187 6.799,9.208 6.708,8.627 6.909,7.566 6.95,7.343 7.685,9.182 8.97,9.373 c 3.554,0.531 1.879,1.94 0,2.261 C 8.069,11.788 6.96,11.952 5.032,11.789 2.513,11.577 1.264,10.261 1.893,9.045 Z"
       id="path6" /><path
       fill="#f5f8fa"
       d="m 12.502,16.625 c 0.044,0.625 0.506,1.511 0.506,1.511 -1.016,1.474 -5.643,3.017 -7.354,2.93 a 7.728,7.728 0 0 1 0.627,-2.097 c 1.844,-0.471 4.661,-1.071 6.221,-2.344 z"
       id="path7" /><path
       fill="#292f33"
       d="m 11.708,6.151 a 1.296,1.296 0 1 1 -2.591,0 1.296,1.296 0 0 1 2.591,0 z"
       id="path8" /></g></svg>
