<?xml version="1.0" encoding="UTF-8" standalone="no"?>
<svg
   height="64"
   viewBox="0 0 40.23 57.86"
   width="64"
   version="1.1"
   id="svg16"
   sodipodi:docname="pickaxe.svg"
   inkscape:version="1.3.2 (091e20e, 2023-11-25, custom)"
   xml:space="preserve"
   xmlns:inkscape="http://www.inkscape.org/namespaces/inkscape"
   xmlns:sodipodi="http://sodipodi.sourceforge.net/DTD/sodipodi-0.dtd"
   xmlns="http://www.w3.org/2000/svg"
   xmlns:svg="http://www.w3.org/2000/svg"><defs
     id="defs16" /><sodipodi:namedview
     id="namedview16"
     pagecolor="#ffffff"
     bordercolor="#000000"
     borderopacity="0.25"
     inkscape:showpageshadow="2"
     inkscape:pageopacity="0.0"
     inkscape:pagecheckerboard="0"
     inkscape:deskcolor="#d1d1d1"
     inkscape:zoom="3.1757813"
     inkscape:cx="-6.6125461"
     inkscape:cy="70.376384"
     inkscape:window-width="2560"
     inkscape:window-height="1369"
     inkscape:window-x="1912"
     inkscape:window-y="-8"
     inkscape:window-maximized="1"
     inkscape:current-layer="svg16" /><g
     style="fill:#000000"
     id="g1"
     transform="matrix(0.11905765,0,0,0.11905765,-7.2639146,2.0295203)"><path
       d="m 393.26,120.973 7.5,-7.5 c 2.929,-2.929 2.929,-7.678 0,-10.606 l -3.631,-3.631 19.745,-19.746 c 2.929,-2.929 2.929,-7.678 0,-10.606 L 382.339,34.349 c -1.407,-1.407 -3.314,-2.197 -5.304,-2.197 -1.99,0 -3.896,0.79 -5.304,2.197 l -19.745,19.745 -3.634,-3.634 c -2.929,-2.929 -7.677,-2.929 -10.607,0 l -7.499,7.499 C 259.456,4.362 174.062,-13.759 105.937,10.736 c -3.128,1.125 -5.143,4.174 -4.95,7.492 0.192,3.318 2.546,6.114 5.783,6.869 59.962,13.988 118.589,43.771 170.041,86.295 l -4.541,4.541 c -1.406,1.406 -2.196,3.314 -2.196,5.303 0,1.989 0.79,3.897 2.196,5.303 l 3.635,3.635 L 2.202,403.879 c -2.929,2.929 -2.929,7.678 0,10.606 l 34.535,34.535 c 1.464,1.464 3.384,2.197 5.303,2.197 1.919,0 3.839,-0.732 5.303,-2.197 l 273.705,-273.704 3.63,3.63 c 1.465,1.464 3.385,2.197 5.304,2.197 1.919,0 3.839,-0.732 5.304,-2.197 l 4.541,-4.541 c 42.521,51.447 72.302,110.073 86.292,170.037 0.755,3.237 3.551,5.591 6.869,5.783 0.146,0.009 0.292,0.013 0.438,0.013 3.146,0 5.979,-1.973 7.055,-4.962 24.488,-68.114 6.37,-153.506 -47.221,-224.303 z M 377.036,50.258 400.965,74.187 386.523,88.629 362.594,64.7 Z M 137.29,17.871 c 24.755,-4.432 51.656,-3.631 79.16,2.47 35.795,7.94 71.271,24.594 103.086,48.328 l -32.069,32.068 C 241.723,62.701 190.376,34.407 137.29,17.871 Z m -95.249,415.24 -23.929,-23.929 268.401,-268.401 23.929,23.928 z m 246.14,-311.875 54.868,-54.867 41.801,41.801 -54.867,54.868 z M 433.344,313.925 C 416.808,260.837 388.515,209.492 350.482,163.752 l 32.068,-32.068 c 23.734,31.821 40.386,67.298 48.325,103.09 6.1,27.498 6.9,54.399 2.469,79.151 z"
       id="path1" /></g></svg>
