<?xml version="1.0" encoding="UTF-8" standalone="no"?>
<!-- Uploaded to: SVG Repo, www.svgrepo.com, Generator: SVG Repo Mixer Tools -->

<svg
   width="50"
   height="50"
   viewBox="0 0 1.5 1.5"
   fill="none"
   version="1.1"
   id="svg1"
   sodipodi:docname="water-arrow-down-svgrepo-com.svg"
   inkscape:export-filename="water1.png"
   inkscape:export-xdpi="96"
   inkscape:export-ydpi="96"
   inkscape:version="1.3.2 (091e20e, 2023-11-25, custom)"
   xmlns:inkscape="http://www.inkscape.org/namespaces/inkscape"
   xmlns:sodipodi="http://sodipodi.sourceforge.net/DTD/sodipodi-0.dtd"
   xmlns="http://www.w3.org/2000/svg"
   xmlns:svg="http://www.w3.org/2000/svg">
  <defs
     id="defs1" />
  <sodipodi:namedview
     id="namedview1"
     pagecolor="#505050"
     bordercolor="#eeeeee"
     borderopacity="1"
     inkscape:showpageshadow="0"
     inkscape:pageopacity="0"
     inkscape:pagecheckerboard="0"
     inkscape:deskcolor="#505050"
     inkscape:zoom="5.7487781"
     inkscape:cx="98.281754"
     inkscape:cy="83.582979"
     inkscape:window-width="2560"
     inkscape:window-height="1369"
     inkscape:window-x="1912"
     inkscape:window-y="-8"
     inkscape:window-maximized="1"
     inkscape:current-layer="svg1" />
  <g
     id="g1"
     transform="matrix(0.26160738,0,0,0.27788737,-0.272319,-4.7648774)">
    <path
       d="m 3.7933579,17.850114 v 1.747321 m 0,0 -0.6552451,-0.655246 m 0.6552451,0.655246 0.6552452,-0.655246 m -2.7301881,1.419698 0.1345699,0.134566 c 0.1236098,0.123623 0.2912608,0.193057 0.4660715,0.193057 0.1748107,0 0.3424617,-0.06943 0.4660715,-0.193057 l 0.050725,-0.05072 c 0.1236098,-0.123623 0.2912608,-0.193057 0.4660715,-0.193057 0.1748194,0 0.3424529,0.06943 0.4660758,0.193057 l 0.050716,0.05072 c 0.1236229,0.123623 0.2912565,0.193057 0.4660759,0.193057 0.1748194,0 0.3424529,-0.06943 0.4660758,-0.193057 l 0.050716,-0.05072 c 0.1236229,-0.123623 0.2912565,-0.193057 0.4660759,-0.193057 0.1748194,0 0.3424529,0.06943 0.4660758,0.193057 l 0.1345655,0.134565 m -4.1498858,0.87366 0.1345699,0.134566 c 0.1236098,0.123623 0.2912608,0.193057 0.4660715,0.193057 0.1748107,0 0.3424617,-0.06943 0.4660715,-0.193057 l 0.050725,-0.05072 c 0.1236098,-0.123623 0.2912608,-0.193057 0.4660715,-0.193057 0.1748194,0 0.3424529,0.06943 0.4660758,0.193057 l 0.050716,0.05072 c 0.1236229,0.123623 0.2912565,0.193057 0.4660759,0.193057 0.1748194,0 0.3424529,-0.06943 0.4660758,-0.193057 l 0.050716,-0.05072 c 0.1236229,-0.123623 0.2912565,-0.193057 0.4660759,-0.193057 0.1748194,0 0.3424529,0.06943 0.4660758,0.193057 l 0.1345655,0.134565"
       stroke="#000000"
       stroke-width="0.43683"
       stroke-linecap="round"
       stroke-linejoin="round"
       id="path1" />
  </g>
</svg>
